<?xml version="1.0" encoding="utf-8"?>
<svg width="24px" height="16.800003px" viewBox="0 0 24 16.800003" version="1.1" xmlns:xlink="http://www.w3.org/1999/xlink" xmlns="http://www.w3.org/2000/svg">
  <g id="Group">
    <path d="M22.8 0L1.2 0C0.537258 0 0 0.537258 0 1.2L0 15.6C0 16.2627 0.537258 16.8 1.2 16.8L22.8 16.8C23.4627 16.8 24 16.2627 24 15.6L24 1.2C24 0.537258 23.4627 0 22.8 0ZM20.64 2.4L12 8.16L3.36 2.4L20.64 2.4ZM2.4 14.4L2.4 4.644L11.34 10.644C11.7405 10.9077 12.2595 10.9077 12.66 10.644L21.6 4.644L21.6 14.4L2.4 14.4Z" id="Shape" fill="#90959D" stroke="none" />
  </g>
</svg>