<?xml version="1.0" encoding="utf-8"?>
<svg width="22.5px" height="21.5px" viewBox="0 0 22.5 21.5" version="1.1" xmlns:xlink="http://www.w3.org/1999/xlink" xmlns="http://www.w3.org/2000/svg">
  <g id="vuesaxoutlineframe-copy" transform="translate(-1.04702 -1.458374)">
    <g id="Mail" transform="translate(1.7970237 2.208374)">
      <g id="IconlyLightMessage">
        <g id="Message">
          <path d="M16.3619 6.23047L11.7907 10.0781C10.9257 10.7872 9.71304 10.7872 8.84798 10.0781L4.23764 6.23047" id="Path_445" fill="none" fill-rule="evenodd" stroke="#9C9C9C" stroke-width="1.5" stroke-linecap="round" stroke-linejoin="round" />
          <path d="M15.3416 0C16.7984 0.0170821 18.185 0.660938 19.1784 1.78162C20.1718 2.90229 20.6853 4.40197 20.5994 5.93137L20.5994 13.245C20.6853 14.7744 20.1718 16.2741 19.1784 17.3948C18.185 18.5154 16.7984 19.1593 15.3416 19.1764L5.23813 19.1764C2.10898 19.1764 0 16.515 0 13.245L0 5.93137C0 2.66138 2.10898 0 5.23813 0L15.3416 0Z" id="Rectangle_511" fill="none" fill-rule="evenodd" stroke="#9C9C9C" stroke-width="1.5" stroke-linecap="round" stroke-linejoin="round" />
        </g>
      </g>
    </g>
  </g>
</svg>