<?xml version="1.0" encoding="utf-8"?>
<svg width="19.617645px" height="23.5px" viewBox="0 0 19.617645 23.5" version="1.1" xmlns:xlink="http://www.w3.org/1999/xlink" xmlns="http://www.w3.org/2000/svg">
  <g id="vuesaxoutlineframe-copy-2" transform="translate(-2.25 -0.25)">
    <g id="Lock" transform="translate(3 1)">
      <path d="M14.4408 7.94572L14.4408 5.39879C14.4408 2.41768 12.0231 5.28339e-05 9.04202 5.28339e-05C6.06092 -0.0129962 3.6338 2.39277 3.62075 5.37506L3.62075 5.39879L3.62075 7.94572" id="Stroke-1" fill="none" fill-rule="evenodd" stroke="#9C9C9C" stroke-width="1.5" stroke-linecap="round" stroke-linejoin="round" />
      <path d="M4.49835 21.9459C2.01429 21.9459 0 19.9328 0 17.4475L0 12.3596C0 9.87434 2.01429 7.86123 4.49835 7.86123L13.5627 7.86123C16.0467 7.86123 18.061 9.87434 18.061 12.3596L18.061 17.4475C18.061 19.9328 16.0467 21.9459 13.5627 21.9459L4.49835 21.9459Z" id="Stroke-3" fill="none" fill-rule="evenodd" stroke="#9C9C9C" stroke-width="1.5" stroke-linecap="round" stroke-linejoin="round" />
      <path d="M9.03081 13.5863L9.03081 16.2211" id="Stroke-5" fill="none" fill-rule="evenodd" stroke="#9C9C9C" stroke-width="1.5" stroke-linecap="round" stroke-linejoin="round" />
    </g>
  </g>
</svg>