<?xml version="1.0" encoding="utf-8"?>
<svg width="24px" height="24px" viewBox="0 0 24 24" version="1.1" xmlns:xlink="http://www.w3.org/1999/xlink" xmlns="http://www.w3.org/2000/svg">
  <defs>
    <filter id="filter_1">
      <feColorMatrix in="SourceGraphic" type="matrix" values="0 0 0 0 0.65882355 0 0 0 0 0.65882355 0 0 0 0 0.65882355 0 0 0 1 0" color-interpolation-filters="sRGB" />
    </filter>
  </defs>
  <g id="House-Garage" filter="url(#filter_1)">
    <path d="M24 0L24 24L0 24L0 0L24 0Z" id="Vector" fill="none" fill-rule="evenodd" stroke="none" />
    <g id="Group" transform="translate(2.7600098 2.7525024)">
      <path d="M18.49 15.3375C18.49 17.0775 17.11 18.4975 15.41 18.4975L3.07999 18.4975C1.37999 18.4975 0 17.0875 0 15.3375L0 6.6675C0 5.5175 0.609996 4.4675 1.59 3.9075L7.75999 0.3975C8.68999 -0.1325 9.82 -0.1325 10.75 0.3975L16.92 3.9075C17.88 4.4575 18.49 5.5175 18.49 6.6675L18.49 15.3375Z" id="Vector" fill="none" stroke="#000000" stroke-width="1.5" stroke-linecap="round" stroke-linejoin="round" />
      <path d="M7.18999 6.1675C5.49 6.1675 4.11 7.5475 4.11 9.2475L4.11 17.4675C4.11 18.0375 4.57 18.4975 5.14 18.4975L13.36 18.4975C13.93 18.4975 14.39 18.0375 14.39 17.4675L14.39 9.2475C14.38 7.5475 13 6.1675 11.3 6.1675L7.18999 6.1675Z" id="Vector" fill="none" stroke="#000000" stroke-width="1.5" stroke-linecap="round" stroke-linejoin="round" />
      <path d="M5.13 10.2775L13.35 10.2775" id="Vector" fill="none" fill-rule="evenodd" stroke="#000000" stroke-width="1.5" stroke-linecap="round" stroke-linejoin="round" />
      <path d="M5.13 14.3875L13.35 14.3875" id="Vector" fill="none" fill-rule="evenodd" stroke="#000000" stroke-width="1.5" stroke-linecap="round" stroke-linejoin="round" />
    </g>
  </g>
</svg>