<?xml version="1.0" encoding="utf-8"?>
<svg width="24px" height="24px" viewBox="0 0 24 24" version="1.1" xmlns:xlink="http://www.w3.org/1999/xlink" xmlns="http://www.w3.org/2000/svg">
  <defs>
    <filter id="filter_1">
      <feColorMatrix in="SourceGraphic" type="matrix" values="0 0 0 0 0.65882355 0 0 0 0 0.65882355 0 0 0 0 0.65882355 0 0 0 1 0" color-interpolation-filters="sRGB" />
    </filter>
  </defs>
  <g id="Warning-Circle" filter="url(#filter_1)">
    <path d="M24 0L24 24L0 24L0 0L24 0Z" id="Vector" fill="none" fill-rule="evenodd" stroke="none" />
    <g id="Group" transform="translate(2.75 2.75)">
      <g id="Group" transform="translate(8.5 5.169983)">
        <path d="M0.75 0L0.75 4.66" id="Vector" fill="none" fill-rule="evenodd" stroke="#000000" stroke-width="1.5" stroke-linecap="round" stroke-linejoin="round" />
        <path d="M0.75 8.15997C0.335786 8.15997 0 7.82419 0 7.40997C0 6.99576 0.335786 6.65997 0.75 6.65997C1.16421 6.65997 1.5 6.99576 1.5 7.40997C1.5 7.82419 1.16421 8.15997 0.75 8.15997Z" id="Vector" fill="#000000" fill-rule="evenodd" stroke="none" />
      </g>
      <path d="M9.25 18.5C4.14137 18.5 0 14.3586 0 9.25C0 4.14137 4.14137 0 9.25 0C14.3586 0 18.5 4.14137 18.5 9.25C18.5 14.3586 14.3586 18.5 9.25 18.5Z" id="Vector" fill="none" fill-rule="evenodd" stroke="#000000" stroke-width="1.5" stroke-linecap="round" stroke-linejoin="round" />
    </g>
  </g>
</svg>