<?xml version="1.0" encoding="utf-8"?>
<svg width="16.884766px" height="19.95227px" viewBox="0 0 16.884766 19.95227" version="1.1" xmlns:xlink="http://www.w3.org/1999/xlink" xmlns="http://www.w3.org/2000/svg">
  <g id="1214347">
    <path d="M16.8774 5.372C16.8774 5.372 16.8774 5.372 16.8774 5.292L16.8174 5.142C16.7965 5.11017 16.7731 5.08008 16.7474 5.052C16.7206 5.00967 16.6905 4.96954 16.6574 4.932L16.5674 4.862L16.4074 4.782L8.90737 0.152002C8.5831 -0.0506675 8.17164 -0.0506675 7.84737 0.152002L0.407371 4.782L0.317371 4.862L0.227371 4.932C0.194223 4.96954 0.164127 5.00967 0.137371 5.052C0.111663 5.08008 0.0882543 5.11017 0.0673715 5.142L0.00737145 5.292C0.00737145 5.292 0.00737145 5.292 0.00737145 5.372C-0.00245715 5.45839 -0.00245715 5.54561 0.00737145 5.632L0.00737145 14.372C0.00668006 14.7175 0.184386 15.0389 0.477371 15.222L7.97737 19.852L7.97737 19.852C8.02353 19.8805 8.07428 19.9008 8.12737 19.912C8.12737 19.912 8.17737 19.912 8.20737 19.912C8.37655 19.9657 8.55819 19.9657 8.72737 19.912C8.72737 19.912 8.77737 19.912 8.80737 19.912C8.86046 19.9008 8.91121 19.8805 8.95737 19.852L8.95737 19.852L16.4074 15.222C16.7004 15.0389 16.8781 14.7175 16.8774 14.372L16.8774 5.632C16.8872 5.54561 16.8872 5.45839 16.8774 5.372ZM7.40737 17.212L1.90737 13.812L1.90737 7.432L7.40737 10.822L7.40737 17.212ZM8.40737 9.092L2.80737 5.632L8.40737 2.182L14.0074 5.632L8.40737 9.092ZM14.9074 13.812L9.40737 17.212L9.40737 10.822L14.9074 7.432L14.9074 13.812Z" id="Shape" fill="#9C9C9C" stroke="none" />
  </g>
</svg>