<?xml version="1.0" encoding="utf-8"?>
<svg width="20px" height="20px" viewBox="0 0 20 20" version="1.1" xmlns:xlink="http://www.w3.org/1999/xlink" xmlns="http://www.w3.org/2000/svg">
  <g id="1636491">
    <path d="M19 18L17 18L17 1C17 0.447715 16.5523 0 16 0L4 0C3.44772 0 3 0.447715 3 1L3 18L1 18C0.447715 18 0 18.4477 0 19C0 19.5523 0.447715 20 1 20L19 20C19.5523 20 20 19.5523 20 19C20 18.4477 19.5523 18 19 18ZM9 18L9 14L11 14L11 18L9 18ZM13 18L13 13C13 12.4477 12.5523 12 12 12L8 12C7.44772 12 7 12.4477 7 13L7 18L5 18L5 2L15 2L15 18L13 18Z" id="Shape" fill="#9C9C9C" stroke="none" />
    <path d="M12 8L8 8C7.44772 8 7 8.44772 7 9C7 9.55228 7.44772 10 8 10L12 10C12.5523 10 13 9.55228 13 9C13 8.44772 12.5523 8 12 8ZM12 4L8 4C7.44772 4 7 4.44772 7 5C7 5.55228 7.44772 6 8 6L12 6C12.5523 6 13 5.55228 13 5C13 4.44772 12.5523 4 12 4Z" id="Shape" fill="#9C9C9C" stroke="none" />
  </g>
</svg>