<?xml version="1.0" encoding="utf-8"?>
<svg width="11px" height="11px" viewBox="0 0 11 11" version="1.1" xmlns:xlink="http://www.w3.org/1999/xlink" xmlns="http://www.w3.org/2000/svg">
  <g id="Group-8">
    <path d="M6.46867 5.49941L10.7968 1.17771C11.0662 0.908293 11.0662 0.471481 10.7968 0.202063C10.5274 -0.0673544 10.0906 -0.0673544 9.82124 0.202063L5.5 4.53064L1.17876 0.202063C0.909368 -0.0673544 0.472603 -0.0673544 0.203214 0.202063C-0.0661747 0.471481 -0.0661747 0.908293 0.203214 1.17771L4.53133 5.49941L0.203214 9.82112C0.0731559 9.95013 0 10.1257 0 10.3089C0 10.4921 0.0731559 10.6678 0.203214 10.7968C0.33221 10.9268 0.507805 11 0.690986 11C0.874166 11 1.04976 10.9268 1.17876 10.7968L5.5 6.46819L9.82124 10.7968C9.95024 10.9268 10.1258 11 10.309 11C10.4922 11 10.6678 10.9268 10.7968 10.7968C10.9268 10.6678 11 10.4921 11 10.3089C11 10.1257 10.9268 9.95013 10.7968 9.82112L6.46867 5.49941Z" id="Path" fill="#181D25" stroke="none" />
  </g>
</svg>