<?xml version="1.0" encoding="utf-8"?>
<svg width="24px" height="24px" viewBox="0 0 24 24" version="1.1" xmlns:xlink="http://www.w3.org/1999/xlink" xmlns="http://www.w3.org/2000/svg">
  <g id="Group-3">
    <path d="M5.96805 9.00597C5.96805 9.02834 5.96547 9.05072 5.96289 9.07309C5.97839 8.96371 5.99389 8.85183 6.00939 8.74244C6.00164 8.79714 5.98614 8.84935 5.96547 8.90155C6.00939 8.80211 6.05332 8.70267 6.09466 8.60571C6.07399 8.64549 6.05332 8.68029 6.02748 8.71758C6.09466 8.63306 6.16183 8.55102 6.22901 8.46649C6.19284 8.50875 6.15667 8.54604 6.11274 8.57836C6.20059 8.51372 6.28585 8.44909 6.3737 8.38445C6.33753 8.40931 6.29877 8.43168 6.25743 8.44909C6.36078 8.40682 6.46413 8.36456 6.5649 8.32478C6.51064 8.34467 6.45896 8.35959 6.39954 8.36705C6.51322 8.35213 6.62949 8.33721 6.74317 8.3223C6.69667 8.32727 6.65016 8.32727 6.60107 8.3223C6.71475 8.33721 6.83102 8.35213 6.9447 8.36705C6.88786 8.35959 6.8336 8.34467 6.77934 8.32478C6.88269 8.36705 6.98604 8.40931 7.08681 8.44909C7.04547 8.4292 7.0093 8.40931 6.97054 8.38445C7.05839 8.44909 7.14365 8.51372 7.2315 8.57836C7.18757 8.54356 7.14882 8.50875 7.11523 8.46649C7.18241 8.55102 7.24958 8.63306 7.31676 8.71758C7.29092 8.68278 7.26767 8.64549 7.24958 8.60571C7.29351 8.70515 7.33743 8.8046 7.37877 8.90155C7.3581 8.84935 7.3426 8.79962 7.33485 8.74244C7.35035 8.85183 7.36585 8.96371 7.38135 9.07309C7.37619 9.02834 7.37619 8.98359 7.38135 8.93636C7.36585 9.04575 7.35035 9.15762 7.33485 9.26701C7.3426 9.21231 7.3581 9.16011 7.37877 9.1079C7.33485 9.20734 7.29092 9.30679 7.24958 9.40374C7.27025 9.36397 7.29092 9.32916 7.31676 9.29187C7.24958 9.3764 7.18241 9.45844 7.11523 9.54296C7.1514 9.5007 7.18757 9.46341 7.2315 9.43109C7.14365 9.49573 7.05839 9.56037 6.97054 9.625C7.00671 9.60014 7.04547 9.57777 7.08681 9.56037C6.98346 9.60263 6.88011 9.64489 6.77934 9.68467C6.8336 9.66478 6.88528 9.64987 6.9447 9.64241C6.83102 9.65732 6.71475 9.67224 6.60107 9.68716C6.64757 9.68218 6.69408 9.68218 6.74317 9.68716C6.62949 9.67224 6.51322 9.65732 6.39954 9.64241C6.45638 9.64987 6.51064 9.66478 6.5649 9.68467C6.46155 9.64241 6.3582 9.60014 6.25743 9.56037C6.29877 9.58026 6.33494 9.60014 6.3737 9.625C6.28585 9.56037 6.20059 9.49573 6.11274 9.43109C6.15667 9.4659 6.19542 9.5007 6.22901 9.54296C6.16183 9.45844 6.09466 9.3764 6.02748 9.29187C6.05332 9.32667 6.07657 9.36397 6.09466 9.40374C6.05073 9.3043 6.00681 9.20486 5.96547 9.1079C5.98614 9.16011 6.00164 9.20983 6.00939 9.26701C5.99389 9.15762 5.97839 9.04575 5.96289 8.93636C5.96547 8.96122 5.96805 8.98359 5.96805 9.00597C5.97839 9.33165 6.10499 9.65235 6.34528 9.88604C6.57006 10.1023 6.93695 10.2639 7.25992 10.249C7.59322 10.2341 7.93944 10.1297 8.17456 9.88604C8.40193 9.64738 8.56212 9.3391 8.55178 9.00597C8.54145 8.67283 8.45877 8.31981 8.25982 8.04137C7.99887 7.6784 7.67332 7.43476 7.23925 7.2856C6.91111 7.17372 6.51064 7.17621 6.17734 7.26571C5.85437 7.35024 5.52365 7.53421 5.30404 7.77784C4.99657 8.12092 4.83896 8.48886 4.80279 8.93884C4.78987 9.11038 4.82088 9.28938 4.85705 9.45346C4.89322 9.61257 4.96815 9.77666 5.05341 9.91588C5.21877 10.1893 5.49006 10.4529 5.78719 10.5921C5.93446 10.6617 6.09466 10.7338 6.26002 10.7611C6.5804 10.8134 6.78193 10.8134 7.10489 10.7587C7.28317 10.7288 7.46662 10.6493 7.62164 10.5623C7.76891 10.4802 7.91877 10.3683 8.03504 10.244C8.36317 9.89102 8.53628 9.47584 8.55178 9.00348C8.56212 8.69024 8.40193 8.34218 8.17456 8.12341C7.94977 7.90712 7.58288 7.74552 7.25992 7.76044C6.54164 7.79276 5.98872 8.30738 5.96805 9.00597ZM11.2905 9.00597C11.2905 9.02834 11.288 9.05072 11.2854 9.07309C11.3009 8.96371 11.3164 8.85183 11.3319 8.74244C11.3241 8.79714 11.3086 8.84935 11.288 8.90155C11.3319 8.80211 11.3758 8.70267 11.4171 8.60571C11.3965 8.64549 11.3758 8.68029 11.35 8.71758C11.4171 8.63306 11.4843 8.55102 11.5515 8.46649C11.5153 8.50875 11.4791 8.54604 11.4352 8.57836C11.5231 8.51372 11.6083 8.44909 11.6962 8.38445C11.66 8.40931 11.6213 8.43168 11.5799 8.44909C11.6833 8.40682 11.7866 8.36456 11.8874 8.32478C11.8331 8.34467 11.7814 8.35959 11.722 8.36705C11.8357 8.35213 11.952 8.33721 12.0657 8.3223C12.0191 8.32727 11.9726 8.32727 11.9235 8.3223C12.0372 8.33721 12.1535 8.35213 12.2672 8.36705C12.2103 8.35959 12.1561 8.34467 12.1018 8.32478C12.2052 8.36705 12.3085 8.40931 12.4093 8.44909C12.368 8.4292 12.3318 8.40931 12.293 8.38445C12.3809 8.44909 12.4661 8.51372 12.554 8.57836C12.5101 8.54356 12.4713 8.50875 12.4377 8.46649C12.5049 8.55102 12.5721 8.63306 12.6392 8.71758C12.6134 8.68278 12.5902 8.64549 12.5721 8.60571C12.616 8.70515 12.6599 8.8046 12.7013 8.90155C12.6806 8.84935 12.6651 8.79962 12.6573 8.74244C12.6728 8.85183 12.6883 8.96371 12.7038 9.07309C12.6987 9.02834 12.6987 8.98359 12.7038 8.93636C12.6883 9.04575 12.6728 9.15762 12.6573 9.26701C12.6651 9.21231 12.6806 9.16011 12.7013 9.1079C12.6573 9.20734 12.6134 9.30679 12.5721 9.40374C12.5927 9.36397 12.6134 9.32916 12.6392 9.29187C12.5721 9.3764 12.5049 9.45844 12.4377 9.54296C12.4739 9.5007 12.5101 9.46341 12.554 9.43109C12.4661 9.49573 12.3809 9.56037 12.293 9.625C12.3292 9.60014 12.368 9.57777 12.4093 9.56037C12.3059 9.60263 12.2026 9.64489 12.1018 9.68467C12.1561 9.66478 12.2078 9.64987 12.2672 9.64241C12.1535 9.65732 12.0372 9.67224 11.9235 9.68716C11.9701 9.68218 12.0166 9.68218 12.0657 9.68716C11.952 9.67224 11.8357 9.65732 11.722 9.64241C11.7789 9.64987 11.8331 9.66478 11.8874 9.68467C11.784 9.64241 11.6807 9.60014 11.5799 9.56037C11.6213 9.58026 11.6574 9.60014 11.6962 9.625C11.6083 9.56037 11.5231 9.49573 11.4352 9.43109C11.4791 9.4659 11.5179 9.5007 11.5515 9.54296C11.4843 9.45844 11.4171 9.3764 11.35 9.29187C11.3758 9.32667 11.3991 9.36397 11.4171 9.40374C11.3732 9.3043 11.3293 9.20486 11.288 9.1079C11.3086 9.16011 11.3241 9.20983 11.3319 9.26701C11.3164 9.15762 11.3009 9.04575 11.2854 8.93636C11.2905 8.96122 11.2905 8.98359 11.2905 9.00597C11.3009 9.33165 11.4275 9.65235 11.6678 9.88604C11.8925 10.1023 12.2594 10.2639 12.5824 10.249C12.9157 10.2341 13.2619 10.1297 13.497 9.88604C13.7244 9.64738 13.8846 9.3391 13.8743 9.00597C13.8639 8.67283 13.7813 8.31981 13.5823 8.04137C13.3213 7.6784 12.9958 7.43476 12.5617 7.2856C12.2336 7.17372 11.8331 7.17621 11.4998 7.26571C11.1769 7.35024 10.8461 7.53421 10.6265 7.77784C10.3191 8.12092 10.1614 8.48886 10.1253 8.93884C10.1124 9.11038 10.1434 9.28938 10.1795 9.45346C10.2157 9.61257 10.2906 9.77666 10.3759 9.91588C10.5413 10.1893 10.8125 10.4529 11.1097 10.5921C11.2569 10.6617 11.4171 10.7338 11.5825 10.7611C11.9029 10.8134 12.1044 10.8134 12.4274 10.7587C12.6057 10.7288 12.7891 10.6493 12.9441 10.5623C13.0914 10.4802 13.2413 10.3683 13.3575 10.244C13.6857 9.89102 13.8588 9.47584 13.8743 9.00348C13.8846 8.69024 13.7244 8.34218 13.497 8.12341C13.2723 7.90712 12.9054 7.74552 12.5824 7.76044C11.8667 7.79276 11.3138 8.30738 11.2905 9.00597ZM16.6156 9.00597C16.6156 9.02834 16.613 9.05072 16.6104 9.07309C16.6259 8.96371 16.6414 8.85183 16.6569 8.74244C16.6492 8.79714 16.6337 8.84935 16.613 8.90155C16.6569 8.80211 16.7009 8.70267 16.7422 8.60571C16.7215 8.64549 16.7009 8.68029 16.675 8.71758C16.7422 8.63306 16.8094 8.55102 16.8766 8.46649C16.8404 8.50875 16.8042 8.54604 16.7603 8.57836C16.8481 8.51372 16.9334 8.44909 17.0212 8.38445C16.9851 8.40931 16.9463 8.43168 16.905 8.44909C17.0083 8.40682 17.1117 8.36456 17.2124 8.32478C17.1582 8.34467 17.1065 8.35959 17.0471 8.36705C17.1608 8.35213 17.277 8.33721 17.3907 8.3223C17.3442 8.32727 17.2977 8.32727 17.2486 8.3223C17.3623 8.33721 17.4786 8.35213 17.5923 8.36705C17.5354 8.35959 17.4812 8.34467 17.4269 8.32478C17.5302 8.36705 17.6336 8.40931 17.7344 8.44909C17.693 8.4292 17.6568 8.40931 17.6181 8.38445C17.7059 8.44909 17.7912 8.51372 17.879 8.57836C17.8351 8.54356 17.7964 8.50875 17.7628 8.46649C17.83 8.55102 17.8971 8.63306 17.9643 8.71758C17.9385 8.68278 17.9152 8.64549 17.8971 8.60571C17.9411 8.70515 17.985 8.8046 18.0263 8.90155C18.0056 8.84935 17.9901 8.79962 17.9824 8.74244C17.9979 8.85183 18.0134 8.96371 18.0289 9.07309C18.0237 9.02834 18.0237 8.98359 18.0289 8.93636C18.0134 9.04575 17.9979 9.15762 17.9824 9.26701C17.9901 9.21231 18.0056 9.16011 18.0263 9.1079C17.9824 9.20734 17.9385 9.30679 17.8971 9.40374C17.9178 9.36397 17.9385 9.32916 17.9643 9.29187C17.8971 9.3764 17.83 9.45844 17.7628 9.54296C17.799 9.5007 17.8351 9.46341 17.879 9.43109C17.7912 9.49573 17.7059 9.56037 17.6181 9.625C17.6543 9.60014 17.693 9.57777 17.7344 9.56037C17.631 9.60263 17.5277 9.64489 17.4269 9.68467C17.4812 9.66478 17.5328 9.64987 17.5923 9.64241C17.4786 9.65732 17.3623 9.67224 17.2486 9.68716C17.2951 9.68218 17.3416 9.68218 17.3907 9.68716C17.277 9.67224 17.1608 9.65732 17.0471 9.64241C17.1039 9.64987 17.1582 9.66478 17.2124 9.68467C17.1091 9.64241 17.0057 9.60014 16.905 9.56037C16.9463 9.58026 16.9825 9.60014 17.0212 9.625C16.9334 9.56037 16.8481 9.49573 16.7603 9.43109C16.8042 9.4659 16.843 9.5007 16.8766 9.54296C16.8094 9.45844 16.7422 9.3764 16.675 9.29187C16.7009 9.32667 16.7241 9.36397 16.7422 9.40374C16.6983 9.3043 16.6544 9.20486 16.613 9.1079C16.6337 9.16011 16.6492 9.20983 16.6569 9.26701C16.6414 9.15762 16.6259 9.04575 16.6104 8.93636C16.613 8.96122 16.6156 8.98359 16.6156 9.00597C16.6259 9.33165 16.7525 9.65235 16.9928 9.88604C17.2176 10.1023 17.5845 10.2639 17.9075 10.249C18.2408 10.2341 18.587 10.1297 18.8221 9.88604C19.0495 9.64738 19.2097 9.3391 19.1993 9.00597C19.189 8.67283 19.1063 8.31981 18.9074 8.04137C18.6464 7.6784 18.3209 7.43476 17.8868 7.2856C17.5587 7.17372 17.1582 7.17621 16.8249 7.26571C16.5019 7.35024 16.1712 7.53421 15.9516 7.77784C15.6441 8.12092 15.4865 8.48886 15.4503 8.93884C15.4374 9.11038 15.4684 9.28938 15.5046 9.45346C15.5408 9.61257 15.6157 9.77666 15.701 9.91588C15.8663 10.1893 16.1376 10.4529 16.4347 10.5921C16.582 10.6617 16.7422 10.7338 16.9076 10.7611C17.2279 10.8134 17.4295 10.8134 17.7524 10.7587C17.9307 10.7288 18.1142 10.6493 18.2692 10.5623C18.4165 10.4802 18.5663 10.3683 18.6826 10.244C19.0107 9.89102 19.1838 9.47584 19.1993 9.00348C19.2097 8.69024 19.0495 8.34218 18.8221 8.12341C18.5973 7.90712 18.2304 7.74552 17.9075 7.76044C17.1892 7.79276 16.6363 8.30738 16.6156 9.00597Z" id="Shape" fill="#90959D" stroke="none" />
    <path d="M21.5141 16.522C21.2591 16.522 21.004 16.522 20.7514 16.522C20.1053 16.522 19.4592 16.522 18.8156 16.522C17.9679 16.522 17.1202 16.522 16.2725 16.522C15.4005 16.522 14.5261 16.522 13.6541 16.522C12.9473 16.522 12.2405 16.522 11.5336 16.522C11.1717 16.522 10.8074 16.5195 10.4455 16.522C10.2172 16.5244 9.97913 16.5633 9.78481 16.6872C9.67551 16.7576 9.57836 16.8403 9.48606 16.9302C9.35004 17.0638 9.21402 17.195 9.078 17.3286C8.54363 17.8486 8.01169 18.3685 7.47733 18.8885C6.86038 19.4886 6.24586 20.0888 5.62891 20.6889C5.25729 21.0509 4.88809 21.4105 4.51646 21.7725C4.49217 21.7968 4.46788 21.8211 4.44359 21.843C4.52618 21.7798 4.60633 21.7167 4.68892 21.6535C4.65734 21.6778 4.62819 21.6948 4.59419 21.7094C4.69135 21.6681 4.7885 21.6268 4.88323 21.5879C4.85651 21.5976 4.83465 21.6025 4.80793 21.6073C4.91481 21.5928 5.02411 21.5782 5.13098 21.5636C5.09698 21.5685 5.06297 21.566 5.02897 21.5636C5.13584 21.5782 5.24514 21.5928 5.35202 21.6073C5.31801 21.6 5.28643 21.5903 5.25486 21.5782C5.35202 21.6195 5.44917 21.6608 5.5439 21.6997C5.51961 21.6875 5.50018 21.6754 5.47832 21.6608C5.5609 21.724 5.64106 21.7871 5.72364 21.8503C5.69692 21.8284 5.67263 21.8041 5.65077 21.7774C5.71393 21.86 5.77708 21.9402 5.84023 22.0228C5.82566 22.0009 5.81351 21.9791 5.80137 21.9548C5.84266 22.052 5.88395 22.1492 5.92281 22.2439C5.9131 22.2172 5.90581 22.1929 5.90095 22.1637C5.91553 22.2706 5.9301 22.38 5.94467 22.4869C5.92524 22.3241 5.93982 22.1516 5.93982 21.9864C5.93982 21.6146 5.93982 21.2429 5.93982 20.8687C5.93982 20.0183 5.93982 19.1703 5.93982 18.3199C5.93982 18.1256 5.93982 17.9312 5.93982 17.7344C5.93982 17.0784 5.38359 16.5195 4.72535 16.5195C4.05254 16.5195 3.37972 16.5195 2.70448 16.5195C2.57575 16.5195 2.44458 16.5244 2.31585 16.5098C2.42272 16.5244 2.53203 16.539 2.6389 16.5536C2.53203 16.539 2.42758 16.5098 2.32557 16.4709C2.42272 16.5122 2.51988 16.5536 2.61461 16.5924C2.50774 16.5463 2.40815 16.4904 2.31342 16.4175C2.39601 16.4807 2.47616 16.5438 2.55874 16.607C2.47616 16.5414 2.40329 16.4685 2.33771 16.3859C2.40086 16.4685 2.46402 16.5487 2.52717 16.6313C2.45673 16.539 2.39843 16.4394 2.35228 16.33C2.39358 16.4272 2.43487 16.5244 2.47373 16.6192C2.43487 16.5171 2.40572 16.4151 2.39115 16.3057C2.40572 16.4126 2.4203 16.522 2.43487 16.6289C2.41544 16.4612 2.42515 16.2863 2.42515 16.1162C2.42515 15.7809 2.42515 15.4456 2.42515 15.1127C2.42515 13.9975 2.42515 12.8798 2.42515 11.7646C2.42515 10.3991 2.42515 9.03606 2.42515 7.67056C2.42515 6.49945 2.42515 5.3259 2.42515 4.15479C2.42515 3.60082 2.4203 3.04927 2.42515 2.4953C2.42515 2.43456 2.43001 2.37382 2.43487 2.31308C2.4203 2.41998 2.40572 2.52932 2.39115 2.63623C2.40572 2.52932 2.43487 2.42484 2.47373 2.32279C2.43244 2.41998 2.39115 2.51717 2.35228 2.61193C2.39843 2.50502 2.4543 2.4054 2.52717 2.31065C2.46402 2.39326 2.40086 2.47344 2.33771 2.55605C2.40329 2.47344 2.47616 2.40054 2.55874 2.33494C2.47616 2.39811 2.39601 2.46129 2.31342 2.52446C2.40572 2.454 2.50531 2.39568 2.61461 2.34952C2.51745 2.39083 2.4203 2.43213 2.32557 2.47101C2.42758 2.43213 2.5296 2.40297 2.6389 2.3884C2.53203 2.40297 2.42272 2.41755 2.31585 2.43213C2.52717 2.40783 2.74577 2.42241 2.95952 2.42241C3.41616 2.42241 3.8728 2.42241 4.32944 2.42241C5.01439 2.42241 5.69935 2.42241 6.38674 2.42241C7.22229 2.42241 8.06027 2.42241 8.89583 2.42241C9.81639 2.42241 10.7394 2.42241 11.6599 2.42241C12.5854 2.42241 13.5132 2.42241 14.4386 2.42241C15.3058 2.42241 16.1705 2.42241 17.0376 2.42241C17.7639 2.42241 18.4901 2.42241 19.2188 2.42241C19.7386 2.42241 20.2608 2.42241 20.7806 2.42241C21.0186 2.42241 21.2567 2.42241 21.4947 2.42241C21.5578 2.42241 21.621 2.42484 21.6841 2.43213C21.5773 2.41755 21.468 2.40297 21.3611 2.3884C21.468 2.40297 21.5724 2.43213 21.6744 2.47101C21.5773 2.4297 21.4801 2.3884 21.3854 2.34952C21.4923 2.39568 21.5919 2.45157 21.6866 2.52446C21.604 2.46129 21.5238 2.39811 21.4413 2.33494C21.5238 2.40054 21.5967 2.47344 21.6623 2.55605C21.5991 2.47344 21.536 2.39326 21.4728 2.31065C21.5433 2.40297 21.6016 2.50259 21.6477 2.61193C21.6064 2.51474 21.5651 2.41755 21.5263 2.32279C21.5651 2.42484 21.5943 2.52689 21.6089 2.63623C21.5943 2.52932 21.5797 2.41998 21.5651 2.31308C21.5846 2.48072 21.5748 2.65566 21.5748 2.82574C21.5748 3.16104 21.5748 3.49634 21.5748 3.82921C21.5748 4.94444 21.5748 6.0621 21.5748 7.17734C21.5748 8.54283 21.5748 9.90589 21.5748 11.2714C21.5748 12.4425 21.5748 13.616 21.5748 14.7872C21.5748 15.3411 21.5797 15.8927 21.5748 16.4466C21.5748 16.5074 21.57 16.5681 21.5651 16.6289C21.5797 16.522 21.5943 16.4126 21.6089 16.3057C21.5943 16.4126 21.5651 16.5171 21.5263 16.6192C21.5676 16.522 21.6089 16.4248 21.6477 16.33C21.6016 16.4369 21.5457 16.5365 21.4728 16.6313C21.536 16.5487 21.5991 16.4685 21.6623 16.3859C21.5967 16.4685 21.5238 16.5414 21.4413 16.607C21.5238 16.5438 21.604 16.4807 21.6866 16.4175C21.5943 16.4879 21.4947 16.5463 21.3854 16.5924C21.4825 16.5511 21.5797 16.5098 21.6744 16.4709C21.5724 16.5098 21.4704 16.539 21.3611 16.5536C21.468 16.539 21.5773 16.5244 21.6841 16.5098C21.6234 16.5171 21.57 16.522 21.5141 16.522C21.2008 16.5268 20.8777 16.6556 20.6543 16.8767C20.443 17.0881 20.2851 17.4331 20.2997 17.7368C20.3142 18.0502 20.4162 18.3758 20.6543 18.5969C20.8899 18.8132 21.1862 18.9565 21.5141 18.9517C21.9416 18.9468 22.3302 18.8399 22.7067 18.6455C23.0711 18.4584 23.348 18.1644 23.5836 17.8364C23.8653 17.4453 23.9941 16.935 23.9989 16.4588C24.0014 16.3082 23.9989 16.1575 23.9989 16.0069C23.9989 15.1759 23.9989 14.3425 23.9989 13.5116C23.9989 12.2797 23.9989 11.0478 23.9989 9.81599C23.9989 8.55255 23.9989 7.2891 23.9989 6.02323C23.9989 5.09751 23.9989 4.1718 23.9989 3.24851C23.9989 3.02498 23.9989 2.80387 23.9989 2.58034C23.9989 1.849 23.7342 1.0958 23.1537 0.624433C22.8379 0.366885 22.493 0.148212 22.0849 0.0680316C21.8955 0.0315861 21.7012 0.0024297 21.5093 0C21.4753 0 21.4413 0 21.4073 0C21.2178 0 21.0283 0 20.8413 0C20.0689 0 19.2965 0 18.5241 0C17.3922 0 16.2603 0 15.1285 0C13.8387 0 12.5514 0 11.2616 0C10.0107 0 8.75738 0 7.50648 0C6.48633 0 5.46618 0 4.44602 0C3.86065 0 3.27528 0 2.68991 0C2.4203 0 2.17012 0.0121485 1.89807 0.0704613C1.22526 0.213814 0.574307 0.72648 0.280407 1.34848C0.103095 1.72509 0.00350846 2.08954 0.00107953 2.51231C-0.00134941 3.04684 0.00107953 3.58381 0.00107953 4.11834C0.00107953 5.21414 0.00107953 6.30993 0.00107953 7.40573C0.00107953 8.69833 0.00107953 9.9885 0.00107953 11.2811C0.00107953 12.4061 0.00107953 13.531 0.00107953 14.656C0.00107953 15.2415 0.00107953 15.8271 0.00107953 16.4126C0.00107953 17.3189 0.472292 18.2422 1.30542 18.6577C1.72319 18.8666 2.14583 18.9565 2.60975 18.9565C2.87208 18.9565 3.13683 18.9565 3.39915 18.9565C3.84122 18.9565 4.28329 18.9565 4.72292 18.9565C4.31729 18.5508 3.91409 18.1474 3.50846 17.7417C3.50846 18.5629 3.50846 19.3866 3.50846 20.2078C3.50846 20.7496 3.50846 21.289 3.50846 21.8309C3.50846 22.3168 3.46716 22.8173 3.7392 23.2522C4.02582 23.709 4.57476 24.0419 5.12612 23.9957C5.53904 23.9617 5.88152 23.8208 6.18271 23.5389C6.23129 23.4928 6.27987 23.4442 6.32845 23.398C6.59077 23.1429 6.85067 22.8878 7.11299 22.6351C7.9364 21.8309 8.76223 21.0291 9.58564 20.2248C10.1322 19.6927 10.6859 19.1655 11.2252 18.6261C11.2349 18.6164 11.2422 18.6091 11.2519 18.5994C10.9653 18.7184 10.6787 18.8375 10.392 18.9541C10.7612 18.9541 11.128 18.9541 11.4972 18.9541C12.3813 18.9541 13.2655 18.9541 14.1496 18.9541C15.2183 18.9541 16.2895 18.9541 17.3582 18.9541C18.2861 18.9541 19.2164 18.9541 20.1442 18.9541C20.5936 18.9541 21.0429 18.9614 21.4923 18.9541C21.4995 18.9541 21.5044 18.9541 21.5117 18.9541C21.8226 18.9541 22.1505 18.818 22.3715 18.5994C22.5829 18.388 22.7407 18.043 22.7262 17.7392C22.7116 17.4258 22.6096 17.1002 22.3715 16.8791C22.1335 16.658 21.842 16.522 21.5141 16.522Z" id="Path" fill="#90959D" stroke="none" />
  </g>
</svg>