<?xml version="1.0" encoding="utf-8"?>
<svg width="16.363647px" height="16.363636px" viewBox="0 0 16.363647 16.363636" version="1.1" xmlns:xlink="http://www.w3.org/1999/xlink" xmlns="http://www.w3.org/2000/svg">
  <g id="Group-2">
    <path d="M4.06927 6.14044C4.06927 6.15569 4.06751 6.17095 4.06575 6.1862C4.07632 6.11162 4.08689 6.03534 4.09746 5.96076C4.09217 5.99805 4.0816 6.03365 4.06751 6.06924C4.09746 6.00144 4.1274 5.93364 4.15559 5.86753C4.1415 5.89465 4.1274 5.91838 4.10979 5.94381C4.15559 5.88618 4.20139 5.83024 4.24719 5.77261C4.22253 5.80142 4.19787 5.82685 4.16792 5.84889C4.22782 5.80482 4.28595 5.76074 4.34585 5.71667C4.32118 5.73362 4.29476 5.74888 4.26657 5.76074C4.33704 5.73193 4.4075 5.70311 4.47621 5.67599C4.43921 5.68955 4.40398 5.69972 4.36346 5.70481C4.44097 5.69464 4.52025 5.68447 4.59776 5.6743C4.56605 5.67769 4.53434 5.67769 4.50087 5.6743C4.57838 5.68447 4.65765 5.69464 4.73517 5.70481C4.69641 5.69972 4.65942 5.68955 4.62242 5.67599C4.69289 5.70481 4.76335 5.73362 4.83206 5.76074C4.80387 5.74718 4.77921 5.73362 4.75278 5.71667C4.81268 5.76074 4.87081 5.80482 4.93071 5.84889C4.90076 5.82516 4.87434 5.80142 4.85143 5.77261C4.89724 5.83024 4.94304 5.88618 4.98884 5.94381C4.97123 5.92008 4.95537 5.89465 4.94304 5.86753C4.97299 5.93533 5.00293 6.00314 5.03112 6.06924C5.01703 6.03365 5.00646 5.99975 5.00117 5.96076C5.01174 6.03534 5.02231 6.11162 5.03288 6.1862C5.02936 6.15569 5.02936 6.12518 5.03288 6.09298C5.02231 6.16756 5.01174 6.24384 5.00117 6.31842C5.00646 6.28113 5.01703 6.24553 5.03112 6.20993C5.00117 6.27774 4.97123 6.34554 4.94304 6.41165C4.95713 6.38453 4.97123 6.36079 4.98884 6.33537C4.94304 6.393 4.89724 6.44894 4.85143 6.50657C4.8761 6.47775 4.90076 6.45233 4.93071 6.43029C4.87081 6.47436 4.81268 6.51844 4.75278 6.56251C4.77745 6.54556 4.80387 6.5303 4.83206 6.51844C4.76159 6.54725 4.69113 6.57607 4.62242 6.60319C4.65942 6.58963 4.69465 6.57946 4.73517 6.57437C4.65765 6.58454 4.57838 6.59471 4.50087 6.60488C4.53258 6.60149 4.56429 6.60149 4.59776 6.60488C4.52025 6.59471 4.44097 6.58454 4.36346 6.57437C4.40222 6.57946 4.43921 6.58963 4.47621 6.60319C4.40574 6.57437 4.33528 6.54556 4.26657 6.51844C4.29476 6.532 4.31942 6.54556 4.34585 6.56251C4.28595 6.51844 4.22782 6.47436 4.16792 6.43029C4.19787 6.45402 4.22429 6.47775 4.24719 6.50657C4.20139 6.44894 4.15559 6.393 4.10979 6.33537C4.1274 6.3591 4.14326 6.38453 4.15559 6.41165C4.12564 6.34384 4.09569 6.27604 4.06751 6.20993C4.0816 6.24553 4.09217 6.27943 4.09746 6.31842C4.08689 6.24384 4.07632 6.16756 4.06575 6.09298C4.06751 6.10993 4.06927 6.12518 4.06927 6.14044C4.07632 6.36249 4.16264 6.58115 4.32647 6.74049C4.47973 6.88796 4.72988 6.99814 4.95009 6.98797C5.17734 6.9778 5.4134 6.9066 5.5737 6.74049C5.72873 6.57776 5.83795 6.36757 5.8309 6.14044C5.82386 5.9133 5.76748 5.6726 5.63184 5.48275C5.45391 5.23528 5.23195 5.06916 4.93599 4.96746C4.71227 4.89118 4.43921 4.89287 4.21196 4.9539C3.99176 5.01153 3.76627 5.13696 3.61653 5.30308C3.40689 5.537 3.29943 5.78786 3.27477 6.09467C3.26596 6.21163 3.2871 6.33367 3.31177 6.44555C3.33643 6.55403 3.38752 6.6659 3.44565 6.76083C3.5584 6.94728 3.74337 7.12696 3.94595 7.22188C4.04637 7.26935 4.15559 7.3185 4.26833 7.33715C4.48678 7.37274 4.62418 7.37274 4.84439 7.33545C4.96594 7.31511 5.09102 7.26087 5.19671 7.20154C5.29713 7.14561 5.3993 7.06933 5.47858 6.98458C5.7023 6.74388 5.82033 6.4608 5.8309 6.13874C5.83795 5.92516 5.72873 5.68786 5.5737 5.53869C5.42044 5.39122 5.17029 5.28104 4.95009 5.29121C4.46035 5.31325 4.08336 5.66413 4.06927 6.14044ZM7.69823 6.14044C7.69823 6.15569 7.69647 6.17095 7.69471 6.1862C7.70528 6.11162 7.71585 6.03534 7.72642 5.96076C7.72114 5.99805 7.71057 6.03365 7.69647 6.06924C7.72642 6.00144 7.75637 5.93364 7.78455 5.86753C7.77046 5.89465 7.75637 5.91838 7.73875 5.94381C7.78455 5.88618 7.83036 5.83024 7.87616 5.77261C7.8515 5.80142 7.82683 5.82685 7.79689 5.84889C7.85678 5.80482 7.91492 5.76074 7.97481 5.71667C7.95015 5.73362 7.92372 5.74888 7.89554 5.76074C7.966 5.73193 8.03647 5.70311 8.10517 5.67599C8.06818 5.68955 8.03294 5.69972 7.99243 5.70481C8.06994 5.69464 8.14921 5.68447 8.22672 5.6743C8.19501 5.67769 8.16331 5.67769 8.12984 5.6743C8.20735 5.68447 8.28662 5.69464 8.36413 5.70481C8.32538 5.69972 8.28838 5.68955 8.25139 5.67599C8.32185 5.70481 8.39232 5.73362 8.46102 5.76074C8.43284 5.74718 8.40817 5.73362 8.38175 5.71667C8.44164 5.76074 8.49978 5.80482 8.55967 5.84889C8.52973 5.82516 8.5033 5.80142 8.4804 5.77261C8.5262 5.83024 8.572 5.88618 8.61781 5.94381C8.60019 5.92008 8.58434 5.89465 8.572 5.86753C8.60195 5.93533 8.6319 6.00314 8.66009 6.06924C8.64599 6.03365 8.63542 5.99975 8.63014 5.96076C8.64071 6.03534 8.65128 6.11162 8.66185 6.1862C8.65833 6.15569 8.65833 6.12518 8.66185 6.09298C8.65128 6.16756 8.64071 6.24384 8.63014 6.31842C8.63542 6.28113 8.64599 6.24553 8.66009 6.20993C8.63014 6.27774 8.60019 6.34554 8.572 6.41165C8.5861 6.38453 8.60019 6.36079 8.61781 6.33537C8.572 6.393 8.5262 6.44894 8.4804 6.50657C8.50506 6.47775 8.52973 6.45233 8.55967 6.43029C8.49978 6.47436 8.44164 6.51844 8.38175 6.56251C8.40641 6.54556 8.43284 6.5303 8.46102 6.51844C8.39056 6.54725 8.32009 6.57607 8.25139 6.60319C8.28838 6.58963 8.32361 6.57946 8.36413 6.57437C8.28662 6.58454 8.20735 6.59471 8.12984 6.60488C8.16154 6.60149 8.19325 6.60149 8.22672 6.60488C8.14921 6.59471 8.06994 6.58454 7.99243 6.57437C8.03118 6.57946 8.06818 6.58963 8.10517 6.60319C8.03471 6.57437 7.96424 6.54556 7.89554 6.51844C7.92372 6.532 7.94839 6.54556 7.97481 6.56251C7.91492 6.51844 7.85678 6.47436 7.79689 6.43029C7.82683 6.45402 7.85326 6.47775 7.87616 6.50657C7.83036 6.44894 7.78455 6.393 7.73875 6.33537C7.75637 6.3591 7.77222 6.38453 7.78455 6.41165C7.75461 6.34384 7.72466 6.27604 7.69647 6.20993C7.71057 6.24553 7.72114 6.27943 7.72642 6.31842C7.71585 6.24384 7.70528 6.16756 7.69471 6.09298C7.69823 6.10993 7.69823 6.12518 7.69823 6.14044C7.70528 6.36249 7.7916 6.58115 7.95543 6.74049C8.1087 6.88796 8.35885 6.99814 8.57905 6.98797C8.8063 6.9778 9.04236 6.9066 9.20267 6.74049C9.35769 6.57776 9.46692 6.36757 9.45987 6.14044C9.45282 5.9133 9.39645 5.6726 9.2608 5.48275C9.08288 5.23528 8.86091 5.06916 8.56496 4.96746C8.34123 4.89118 8.06818 4.89287 7.84093 4.9539C7.62072 5.01153 7.39523 5.13696 7.24549 5.30308C7.03586 5.537 6.9284 5.78786 6.90374 6.09467C6.89493 6.21163 6.91607 6.33367 6.94073 6.44555C6.96539 6.55403 7.01648 6.6659 7.07462 6.76083C7.18736 6.94728 7.37233 7.12696 7.57492 7.22188C7.67533 7.26935 7.78455 7.3185 7.8973 7.33715C8.11574 7.37274 8.25315 7.37274 8.47335 7.33545C8.59491 7.31511 8.71998 7.26087 8.82568 7.20154C8.92609 7.14561 9.02827 7.06933 9.10754 6.98458C9.33127 6.74388 9.4493 6.4608 9.45987 6.13874C9.46692 5.92516 9.35769 5.68786 9.20267 5.53869C9.04941 5.39122 8.79926 5.28104 8.57905 5.29121C8.09108 5.31325 7.71409 5.66413 7.69823 6.14044ZM11.329 6.14044C11.329 6.15569 11.3272 6.17095 11.3254 6.1862C11.336 6.11162 11.3466 6.03534 11.3571 5.96076C11.3519 5.99805 11.3413 6.03365 11.3272 6.06924C11.3571 6.00144 11.3871 5.93364 11.4153 5.86753C11.4012 5.89465 11.3871 5.91838 11.3695 5.94381C11.4153 5.88618 11.4611 5.83024 11.5069 5.77261C11.4822 5.80142 11.4576 5.82685 11.4276 5.84889C11.4875 5.80482 11.5456 5.76074 11.6055 5.71667C11.5809 5.73362 11.5545 5.74888 11.5263 5.76074C11.5967 5.73193 11.6672 5.70311 11.7359 5.67599C11.6989 5.68955 11.6637 5.69972 11.6232 5.70481C11.7007 5.69464 11.7799 5.68447 11.8575 5.6743C11.8257 5.67769 11.794 5.67769 11.7606 5.6743C11.8381 5.68447 11.9173 5.69464 11.9949 5.70481C11.9561 5.69972 11.9191 5.68955 11.8821 5.67599C11.9526 5.70481 12.023 5.73362 12.0917 5.76074C12.0636 5.74718 12.0389 5.73362 12.0125 5.71667C12.0724 5.76074 12.1305 5.80482 12.1904 5.84889C12.1605 5.82516 12.134 5.80142 12.1111 5.77261C12.1569 5.83024 12.2027 5.88618 12.2485 5.94381C12.2309 5.92008 12.2151 5.89465 12.2027 5.86753C12.2327 5.93533 12.2626 6.00314 12.2908 6.06924C12.2767 6.03365 12.2662 5.99975 12.2609 5.96076C12.2714 6.03534 12.282 6.11162 12.2926 6.1862C12.2891 6.15569 12.2891 6.12518 12.2926 6.09298C12.282 6.16756 12.2714 6.24384 12.2609 6.31842C12.2662 6.28113 12.2767 6.24553 12.2908 6.20993C12.2609 6.27774 12.2309 6.34554 12.2027 6.41165C12.2168 6.38453 12.2309 6.36079 12.2485 6.33537C12.2027 6.393 12.1569 6.44894 12.1111 6.50657C12.1358 6.47775 12.1605 6.45233 12.1904 6.43029C12.1305 6.47436 12.0724 6.51844 12.0125 6.56251C12.0371 6.54556 12.0636 6.5303 12.0917 6.51844C12.0213 6.54725 11.9508 6.57607 11.8821 6.60319C11.9191 6.58963 11.9543 6.57946 11.9949 6.57437C11.9173 6.58454 11.8381 6.59471 11.7606 6.60488C11.7923 6.60149 11.824 6.60149 11.8575 6.60488C11.7799 6.59471 11.7007 6.58454 11.6232 6.57437C11.6619 6.57946 11.6989 6.58963 11.7359 6.60319C11.6654 6.57437 11.595 6.54556 11.5263 6.51844C11.5545 6.532 11.5791 6.54556 11.6055 6.56251C11.5456 6.51844 11.4875 6.47436 11.4276 6.43029C11.4576 6.45402 11.484 6.47775 11.5069 6.50657C11.4611 6.44894 11.4153 6.393 11.3695 6.33537C11.3871 6.3591 11.403 6.38453 11.4153 6.41165C11.3853 6.34384 11.3554 6.27604 11.3272 6.20993C11.3413 6.24553 11.3519 6.27943 11.3571 6.31842C11.3466 6.24384 11.336 6.16756 11.3254 6.09298C11.3272 6.10993 11.329 6.12518 11.329 6.14044C11.336 6.36249 11.4223 6.58115 11.5862 6.74049C11.7394 6.88796 11.9896 6.99814 12.2098 6.98797C12.437 6.9778 12.6731 6.9066 12.8334 6.74049C12.9884 6.57776 13.0976 6.36757 13.0906 6.14044C13.0835 5.9133 13.0272 5.6726 12.8915 5.48275C12.7136 5.23528 12.4916 5.06916 12.1957 4.96746C11.972 4.89118 11.6989 4.89287 11.4717 4.9539C11.2514 5.01153 11.026 5.13696 10.8762 5.30308C10.6666 5.537 10.5591 5.78786 10.5345 6.09467C10.5257 6.21163 10.5468 6.33367 10.5715 6.44555C10.5961 6.55403 10.6472 6.6659 10.7053 6.76083C10.8181 6.94728 11.0031 7.12696 11.2056 7.22188C11.3061 7.26935 11.4153 7.3185 11.528 7.33715C11.7465 7.37274 11.8839 7.37274 12.1041 7.33545C12.2256 7.31511 12.3507 7.26087 12.4564 7.20154C12.5568 7.14561 12.659 7.06933 12.7383 6.98458C12.962 6.74388 13.08 6.4608 13.0906 6.13874C13.0976 5.92516 12.9884 5.68786 12.8334 5.53869C12.6801 5.39122 12.43 5.28104 12.2098 5.29121C11.72 5.31325 11.3431 5.66413 11.329 6.14044Z" id="Shape" fill="#2B6FED" stroke="none" />
    <path d="M14.6687 11.265C14.4948 11.265 14.3209 11.265 14.1487 11.265C13.7082 11.265 13.2677 11.265 12.8288 11.265C12.2508 11.265 11.6729 11.265 11.0949 11.265C10.5003 11.265 9.90415 11.265 9.30962 11.265C8.82769 11.265 8.34577 11.265 7.86385 11.265C7.61709 11.265 7.36868 11.2633 7.12192 11.265C6.96625 11.2666 6.80395 11.2931 6.67146 11.3776C6.59694 11.4257 6.5307 11.482 6.46777 11.5433C6.37502 11.6344 6.28228 11.7239 6.18954 11.815C5.8252 12.1695 5.46252 12.524 5.09818 12.8785C4.67753 13.2877 4.25854 13.6969 3.8379 14.1061C3.58451 14.3529 3.33279 14.5981 3.07941 14.8449C3.06285 14.8615 3.04628 14.8781 3.02972 14.893C3.08603 14.8499 3.14068 14.8068 3.19699 14.7637C3.17546 14.7803 3.15559 14.7919 3.1324 14.8018C3.19864 14.7737 3.26489 14.7455 3.32948 14.719C3.31126 14.7256 3.29635 14.729 3.27814 14.7323C3.35101 14.7223 3.42553 14.7124 3.4984 14.7024C3.47521 14.7058 3.45203 14.7041 3.42884 14.7024C3.50171 14.7124 3.57623 14.7223 3.6491 14.7323C3.62592 14.7273 3.60439 14.7207 3.58286 14.7124C3.6491 14.7406 3.71534 14.7687 3.77993 14.7952C3.76337 14.7869 3.75012 14.7787 3.73522 14.7687C3.79152 14.8118 3.84618 14.8549 3.90248 14.8979C3.88427 14.883 3.8677 14.8665 3.8528 14.8482C3.89586 14.9046 3.93892 14.9592 3.98198 15.0155C3.97204 15.0006 3.96376 14.9857 3.95548 14.9692C3.98363 15.0354 4.01179 15.1017 4.03828 15.1663C4.03166 15.1481 4.02669 15.1315 4.02338 15.1116C4.03331 15.1845 4.04325 15.2591 4.05319 15.332C4.03994 15.221 4.04987 15.1033 4.04987 14.9907C4.04987 14.7372 4.04987 14.4838 4.04987 14.2287C4.04987 13.6488 4.04987 13.0707 4.04987 12.4909C4.04987 12.3583 4.04987 12.2258 4.04987 12.0916C4.04987 11.6443 3.67063 11.2633 3.22183 11.2633C2.76309 11.2633 2.30436 11.2633 1.84396 11.2633C1.75619 11.2633 1.66676 11.2666 1.57899 11.2567C1.65186 11.2666 1.72638 11.2766 1.79925 11.2865C1.72638 11.2766 1.65517 11.2567 1.58561 11.2302C1.65186 11.2583 1.7181 11.2865 1.78269 11.313C1.70982 11.2815 1.64192 11.2434 1.57733 11.1937C1.63364 11.2368 1.68829 11.2799 1.7446 11.323C1.68829 11.2782 1.63861 11.2285 1.59389 11.1722C1.63695 11.2285 1.68001 11.2832 1.72307 11.3395C1.67504 11.2766 1.6353 11.2087 1.60383 11.1341C1.63198 11.2004 1.66014 11.2666 1.68664 11.3312C1.66014 11.2617 1.64026 11.1921 1.63033 11.1175C1.64026 11.1904 1.6502 11.265 1.66014 11.3379C1.64689 11.2236 1.65351 11.1043 1.65351 10.9883C1.65351 10.7597 1.65351 10.5311 1.65351 10.3041C1.65351 9.54375 1.65351 8.78171 1.65351 8.02133C1.65351 7.09031 1.65351 6.16095 1.65351 5.22993C1.65351 4.43144 1.65351 3.6313 1.65351 2.83281C1.65351 2.4551 1.6502 2.07905 1.65351 1.70134C1.65351 1.65993 1.65683 1.61851 1.66014 1.5771C1.6502 1.64999 1.64026 1.72454 1.63033 1.79743C1.64026 1.72454 1.66014 1.6533 1.68664 1.58372C1.65848 1.64999 1.63033 1.71625 1.60383 1.78086C1.6353 1.70797 1.67339 1.64005 1.72307 1.57544C1.68001 1.63176 1.63695 1.68643 1.59389 1.74276C1.63861 1.68643 1.68829 1.63673 1.7446 1.59201C1.68829 1.63508 1.63364 1.67815 1.57733 1.72122C1.64026 1.67318 1.70816 1.63342 1.78269 1.60195C1.71644 1.63011 1.6502 1.65827 1.58561 1.68478C1.65517 1.65827 1.72473 1.63839 1.79925 1.62845C1.72638 1.63839 1.65186 1.64833 1.57899 1.65827C1.72307 1.6417 1.87212 1.65164 2.01785 1.65164C2.3292 1.65164 2.64054 1.65164 2.95189 1.65164C3.4189 1.65164 3.88592 1.65164 4.3546 1.65164C4.92429 1.65164 5.49564 1.65164 6.06534 1.65164C6.69299 1.65164 7.32231 1.65164 7.94997 1.65164C8.58094 1.65164 9.21356 1.65164 9.84453 1.65164C10.4358 1.65164 11.0253 1.65164 11.6165 1.65164C12.1117 1.65164 12.6069 1.65164 13.1037 1.65164C13.4581 1.65164 13.8142 1.65164 14.1686 1.65164C14.3309 1.65164 14.4932 1.65164 14.6555 1.65164C14.6985 1.65164 14.7416 1.6533 14.7846 1.65827C14.7118 1.64833 14.6373 1.63839 14.5644 1.62845C14.6373 1.63839 14.7085 1.65827 14.778 1.68478C14.7118 1.65661 14.6455 1.62845 14.5809 1.60195C14.6538 1.63342 14.7217 1.67152 14.7863 1.72122C14.73 1.67815 14.6753 1.63508 14.619 1.59201C14.6753 1.63673 14.725 1.68643 14.7697 1.74276C14.7267 1.68643 14.6836 1.63176 14.6406 1.57544C14.6886 1.63839 14.7283 1.70631 14.7598 1.78086C14.7317 1.7146 14.7035 1.64833 14.677 1.58372C14.7035 1.6533 14.7234 1.72288 14.7333 1.79743C14.7234 1.72454 14.7134 1.64999 14.7035 1.5771C14.7167 1.6914 14.7101 1.81068 14.7101 1.92664C14.7101 2.15525 14.7101 2.38387 14.7101 2.61082C14.7101 3.37121 14.7101 4.13325 14.7101 4.89364C14.7101 5.82465 14.7101 6.75402 14.7101 7.68503C14.7101 8.48352 14.7101 9.28367 14.7101 10.0822C14.7101 10.4599 14.7134 10.8359 14.7101 11.2136C14.7101 11.255 14.7068 11.2965 14.7035 11.3379C14.7134 11.265 14.7234 11.1904 14.7333 11.1175C14.7234 11.1904 14.7035 11.2617 14.677 11.3312C14.7052 11.265 14.7333 11.1987 14.7598 11.1341C14.7283 11.207 14.6902 11.2749 14.6406 11.3395C14.6836 11.2832 14.7267 11.2285 14.7697 11.1722C14.725 11.2285 14.6753 11.2782 14.619 11.323C14.6753 11.2799 14.73 11.2368 14.7863 11.1937C14.7234 11.2418 14.6555 11.2815 14.5809 11.313C14.6472 11.2849 14.7134 11.2567 14.778 11.2302C14.7085 11.2567 14.6389 11.2766 14.5644 11.2865C14.6373 11.2766 14.7118 11.2666 14.7846 11.2567C14.7432 11.2617 14.7068 11.265 14.6687 11.265C14.4551 11.2683 14.2348 11.3561 14.0825 11.5068C13.9384 11.651 13.8307 11.8862 13.8407 12.0933C13.8506 12.307 13.9202 12.529 14.0825 12.6797C14.2431 12.8272 14.4451 12.9249 14.6687 12.9216C14.9602 12.9183 15.2252 12.8454 15.4819 12.7129C15.7303 12.5853 15.9191 12.3848 16.0797 12.1612C16.2718 11.8945 16.3596 11.5466 16.3629 11.2219C16.3646 11.1192 16.3629 11.0165 16.3629 10.9138C16.3629 10.3472 16.3629 9.77899 16.3629 9.21243C16.3629 8.37253 16.3629 7.53262 16.3629 6.69272C16.3629 5.83128 16.3629 4.96984 16.3629 4.10675C16.3629 3.47558 16.3629 2.84441 16.3629 2.21489C16.3629 2.06248 16.3629 1.91173 16.3629 1.75932C16.3629 1.26068 16.1824 0.747133 15.7866 0.42575C15.5713 0.250149 15.3361 0.101053 15.0579 0.0463852C14.9287 0.021536 14.7962 0.00165661 14.6654 0C14.6422 0 14.619 0 14.5959 0C14.4667 0 14.3375 0 14.21 0C13.6833 0 13.1567 0 12.6301 0C11.8583 0 11.0866 0 10.3149 0C9.43548 0 8.55775 0 7.67837 0C6.82548 0 5.97094 0 5.11805 0C4.42249 0 3.72694 0 3.03138 0C2.63226 0 2.23314 0 1.83403 0C1.6502 0 1.47962 0.00828307 1.29414 0.0480418C0.835405 0.145782 0.391573 0.495328 0.191186 0.919421C0.0702918 1.1762 0.00239213 1.42469 0.00073604 1.71294C-0.00092005 2.07739 0.00073604 2.44351 0.00073604 2.80796C0.00073604 3.55509 0.00073604 4.30223 0.00073604 5.04936C0.00073604 5.93068 0.00073604 6.81034 0.00073604 7.69166C0.00073604 8.45867 0.00073604 9.22568 0.00073604 9.9927C0.00073604 10.3919 0.00073604 10.7912 0.00073604 11.1904C0.00073604 11.8083 0.322017 12.4379 0.890056 12.7211C1.1749 12.8636 1.46306 12.9249 1.77938 12.9249C1.95823 12.9249 2.13875 12.9249 2.31761 12.9249C2.61901 12.9249 2.92042 12.9249 3.22017 12.9249C2.94361 12.6482 2.6687 12.3733 2.39213 12.0966C2.39213 12.6565 2.39213 13.2181 2.39213 13.7781C2.39213 14.1475 2.39213 14.5153 2.39213 14.8847C2.39213 15.216 2.36398 15.5573 2.54946 15.8538C2.74488 16.1652 3.11915 16.3922 3.49508 16.3607C3.77662 16.3375 4.01013 16.2414 4.21548 16.0493C4.24861 16.0178 4.28173 15.9847 4.31485 15.9532C4.49371 15.7792 4.67091 15.6053 4.84977 15.433C5.41118 14.8847 5.97425 14.338 6.53567 13.7897C6.90829 13.4269 7.28587 13.0674 7.65353 12.6996C7.66015 12.693 7.66512 12.688 7.67174 12.6814C7.47632 12.7626 7.28091 12.8437 7.08549 12.9232C7.33721 12.9232 7.58728 12.9232 7.83901 12.9232C8.44182 12.9232 9.04464 12.9232 9.64746 12.9232C10.3761 12.9232 11.1065 12.9232 11.8352 12.9232C12.4678 12.9232 13.1021 12.9232 13.7347 12.9232C14.0411 12.9232 14.3474 12.9282 14.6538 12.9232C14.6588 12.9232 14.6621 12.9232 14.6671 12.9232C14.879 12.9232 15.1026 12.8305 15.2533 12.6814C15.3974 12.5373 15.505 12.302 15.4951 12.0949C15.4852 11.8812 15.4156 11.6592 15.2533 11.5085C15.091 11.3577 14.8923 11.265 14.6687 11.265Z" id="Path" fill="#2B6FED" stroke="none" />
  </g>
</svg>