<?xml version="1.0" encoding="utf-8"?>
<svg width="13.072723px" height="13.072726px" viewBox="0 0 13.072723 13.072726" version="1.1" xmlns:xlink="http://www.w3.org/1999/xlink" xmlns="http://www.w3.org/2000/svg">
  <g id="Group" transform="translate(0.3999939 0.39999962)">
    <path d="M11.5057 12.2727C10.1193 12.2727 8.74148 11.9318 7.37216 11.25C6.00284 10.5682 4.77273 9.68182 3.68182 8.59091C2.59091 7.5 1.70455 6.26989 1.02273 4.90057C0.340909 3.53125 0 2.15341 0 0.767045C0 0.551136 0.0738636 0.369318 0.221591 0.221591C0.369318 0.0738636 0.551136 0 0.767045 0L3.15341 0C3.3125 0 3.4517 0.0539773 3.57102 0.161932C3.69034 0.269886 3.76705 0.414773 3.80114 0.596591L4.26136 2.74432C4.28409 2.90341 4.28125 3.0483 4.25284 3.17898C4.22443 3.30966 4.16477 3.42045 4.07386 3.51136L2.36932 5.23295C3.00568 6.28977 3.71875 7.21023 4.50852 7.99432C5.2983 8.77841 6.19318 9.44318 7.19318 9.98864L8.8125 8.31818C8.92614 8.19318 9.05682 8.10511 9.20455 8.05398C9.35227 8.00284 9.5 7.99432 9.64773 8.02841L11.6761 8.47159C11.8466 8.50568 11.9886 8.59091 12.1023 8.72727C12.2159 8.86364 12.2727 9.02273 12.2727 9.20455L12.2727 11.5057C12.2727 11.7216 12.1989 11.9034 12.0511 12.0511C11.9034 12.1989 11.7216 12.2727 11.5057 12.2727ZM1.85795 4.29545L3.23864 2.89773C3.23864 2.89773 3.23864 2.89773 3.23864 2.89773C3.23864 2.89773 3.23864 2.89773 3.23864 2.89773L2.84659 1.02273C2.84659 1.02273 2.84659 1.02273 2.84659 1.02273C2.84659 1.02273 2.84659 1.02273 2.84659 1.02273L1.02273 1.02273C1.02273 1.02273 1.02273 1.02273 1.02273 1.02273C1.02273 1.02273 1.02273 1.02273 1.02273 1.02273C1.02273 1.46591 1.09091 1.9517 1.22727 2.48011C1.36364 3.00852 1.57386 3.61364 1.85795 4.29545ZM11.25 11.25C11.25 11.25 11.25 11.25 11.25 11.25C11.25 11.25 11.25 11.25 11.25 11.25L11.25 9.42614C11.25 9.42614 11.25 9.42614 11.25 9.42614C11.25 9.42614 11.25 9.42614 11.25 9.42614L9.49432 9.06818C9.49432 9.06818 9.49432 9.06818 9.49432 9.06818C9.49432 9.06818 9.49432 9.06818 9.49432 9.06818L8.14773 10.483C8.61364 10.6989 9.11932 10.875 9.66477 11.0114C10.2102 11.1477 10.7386 11.2273 11.25 11.25Z" id="Shape" fill="#2B6FED" stroke="#2A6FED" stroke-width="0.8" />
  </g>
</svg>