<?xml version="1.0" encoding="utf-8"?>
<svg width="13.072723px" height="13.072726px" viewBox="0 0 13.072723 13.072726" version="1.1" xmlns:xlink="http://www.w3.org/1999/xlink" xmlns="http://www.w3.org/2000/svg">
  <path d="M-31.9943 -335.327C-33.3807 -335.327 -34.7585 -335.668 -36.1278 -336.35C-37.4972 -337.032 -38.7273 -337.918 -39.8182 -339.009C-40.9091 -340.1 -41.7955 -341.33 -42.4773 -342.699C-43.1591 -344.069 -43.5 -345.447 -43.5 -346.833C-43.5 -347.049 -43.4261 -347.231 -43.2784 -347.378C-43.1307 -347.526 -42.9489 -347.6 -42.733 -347.6L-40.3466 -347.6C-40.1875 -347.6 -40.0483 -347.546 -39.929 -347.438C-39.8097 -347.33 -39.733 -347.185 -39.6989 -347.003L-39.2386 -344.856C-39.2159 -344.697 -39.2188 -344.552 -39.2472 -344.421C-39.2756 -344.29 -39.3352 -344.18 -39.4261 -344.089L-41.1307 -342.367C-40.4943 -341.31 -39.7813 -340.39 -38.9915 -339.606C-38.2017 -338.822 -37.3068 -338.157 -36.3068 -337.611L-34.6875 -339.282C-34.5739 -339.407 -34.4432 -339.495 -34.2955 -339.546C-34.1477 -339.597 -34 -339.606 -33.8523 -339.572L-31.8239 -339.128C-31.6534 -339.094 -31.5114 -339.009 -31.3977 -338.873C-31.2841 -338.736 -31.2273 -338.577 -31.2273 -338.395L-31.2273 -336.094C-31.2273 -335.878 -31.3011 -335.697 -31.4489 -335.549C-31.5966 -335.401 -31.7784 -335.327 -31.9943 -335.327ZM-41.642 -343.305L-40.2614 -344.702C-40.2614 -344.702 -40.2614 -344.702 -40.2614 -344.702C-40.2614 -344.702 -40.2614 -344.702 -40.2614 -344.702L-40.6534 -346.577C-40.6534 -346.577 -40.6534 -346.577 -40.6534 -346.577C-40.6534 -346.577 -40.6534 -346.577 -40.6534 -346.577L-42.4773 -346.577C-42.4773 -346.577 -42.4773 -346.577 -42.4773 -346.577C-42.4773 -346.577 -42.4773 -346.577 -42.4773 -346.577C-42.4773 -346.134 -42.4091 -345.648 -42.2727 -345.12C-42.1364 -344.591 -41.9261 -343.986 -41.642 -343.305ZM-32.25 -336.35C-32.25 -336.35 -32.25 -336.35 -32.25 -336.35C-32.25 -336.35 -32.25 -336.35 -32.25 -336.35L-32.25 -338.174C-32.25 -338.174 -32.25 -338.174 -32.25 -338.174C-32.25 -338.174 -32.25 -338.174 -32.25 -338.174L-34.0057 -338.532C-34.0057 -338.532 -34.0057 -338.532 -34.0057 -338.532C-34.0057 -338.532 -34.0057 -338.532 -34.0057 -338.532L-35.3523 -337.117C-34.8864 -336.901 -34.3807 -336.725 -33.8352 -336.589C-33.2898 -336.452 -32.7614 -336.373 -32.25 -336.35Z" id="Shape" fill="#2B6FED" stroke="#2A6FED" stroke-width="0.8" />
</svg>