<?xml version="1.0" encoding="utf-8"?>
<svg width="16.363647px" height="11.454545px" viewBox="0 0 16.363647 11.454545" version="1.1" xmlns:xlink="http://www.w3.org/1999/xlink" xmlns="http://www.w3.org/2000/svg">
  <path d="M-28.3545 -348L-43.0818 -348C-43.5337 -348 -43.9 -347.634 -43.9 -347.182L-43.9 -337.364C-43.9 -336.912 -43.5337 -336.545 -43.0818 -336.545L-28.3545 -336.545C-27.9027 -336.545 -27.5363 -336.912 -27.5363 -337.364L-27.5363 -347.182C-27.5363 -347.634 -27.9027 -348 -28.3545 -348ZM-29.8273 -346.364L-35.7182 -342.436L-41.6091 -346.364L-29.8273 -346.364ZM-42.2636 -338.182L-42.2636 -344.834L-36.1682 -340.743C-35.8951 -340.563 -35.5412 -340.563 -35.2682 -340.743L-29.1727 -344.834L-29.1727 -338.182L-42.2636 -338.182Z" id="Shape" fill="#2B6FED" stroke="none" />
</svg>