<?xml version="1.0" encoding="utf-8"?>
<svg width="16.363647px" height="11.454545px" viewBox="0 0 16.363647 11.454545" version="1.1" xmlns:xlink="http://www.w3.org/1999/xlink" xmlns="http://www.w3.org/2000/svg">
  <g id="Group-3">
    <path d="M15.5455 0L0.818182 0C0.366312 0 0 0.366312 0 0.818182L0 10.6364C0 11.0882 0.366312 11.4545 0.818182 11.4545L15.5455 11.4545C15.9973 11.4545 16.3636 11.0882 16.3636 10.6364L16.3636 0.818182C16.3636 0.366312 15.9973 0 15.5455 0ZM14.0727 1.63636L8.18182 5.56364L2.29091 1.63636L14.0727 1.63636ZM1.63636 9.81818L1.63636 3.16636L7.73182 7.25727C8.00487 7.43709 8.35876 7.43709 8.63182 7.25727L14.7273 3.16636L14.7273 9.81818L1.63636 9.81818Z" id="Shape" fill="#2B6FED" stroke="none" />
  </g>
</svg>