<?xml version="1.0" encoding="utf-8"?>
<svg width="15px" height="15px" viewBox="0 0 15 15" version="1.1" xmlns:xlink="http://www.w3.org/1999/xlink" xmlns="http://www.w3.org/2000/svg">
  <g id="2140475">
    <path d="M1.76868 10.3054C3.91901 12.4582 7.3374 12.6702 9.73747 10.7998L13.7282 14.7894C14.0227 15.0737 14.4907 15.0696 14.7802 14.7803C15.0697 14.4909 15.0737 14.023 14.7893 13.7286L10.7986 9.73901C12.7586 7.22438 12.4228 3.61918 10.032 1.50959C7.64124 -0.600003 4.02119 -0.485455 1.76868 1.77106C0.636244 2.90259 -4.99885e-16 4.43762 0 6.03824C4.99885e-16 7.63887 0.636244 9.17389 1.76868 10.3054ZM2.82978 2.83336C4.35954 1.30408 6.75684 1.06801 8.55567 2.26952C10.3545 3.47103 11.0539 5.77549 10.2261 7.77367C9.39837 9.77184 7.27401 10.9073 5.15215 10.4856C3.03029 10.0639 1.50185 8.20249 1.50153 6.03974C1.49737 4.8359 1.97575 3.68056 2.82978 2.83186L2.82978 2.83336Z" id="Shape" fill="#000000" stroke="none" />
  </g>
</svg>