<?xml version="1.0" encoding="utf-8"?>
<svg width="4px" height="16px" viewBox="0 0 4 16" version="1.1" xmlns:xlink="http://www.w3.org/1999/xlink" xmlns="http://www.w3.org/2000/svg">
  <g id="Group-7">
    <g id="2236324">
      <path d="M2 6.22222C0.9 6.22222 0 7.02222 0 8C0 8.97778 0.9 9.77778 2 9.77778C3.1 9.77778 4 8.97778 4 8C4 7.02222 3.1 6.22222 2 6.22222ZM2 3.55556C3.1 3.55556 4 2.75556 4 1.77778C4 0.8 3.1 0 2 0C0.9 0 0 0.8 0 1.77778C0 2.75556 0.9 3.55556 2 3.55556ZM2 12.4444C0.9 12.4444 0 13.2444 0 14.2222C0 15.2 0.9 16 2 16C3.1 16 4 15.2 4 14.2222C4 13.2444 3.1 12.4444 2 12.4444Z" id="Shape" fill="#000000" stroke="none" />
    </g>
  </g>
</svg>