<?xml version="1.0" encoding="utf-8"?>
<svg width="21.5px" height="20.110016px" viewBox="0 0 21.5 20.110016" version="1.1" xmlns:xlink="http://www.w3.org/1999/xlink" xmlns="http://www.w3.org/2000/svg">
  <g id="LEADING-ICON" transform="translate(0.75 0.75)">
    <g id="Mail">
      <g id="IconlyLightMessage">
        <g id="Message">
          <path d="M15.8786 6.04645L11.4425 9.78047C10.603 10.4686 9.42616 10.4686 8.58665 9.78047L4.11248 6.04645" id="Path_445" fill="none" fill-rule="evenodd" stroke="#9C9C9C" stroke-width="1.5" stroke-linecap="round" stroke-linejoin="round" />
          <path d="M14.8885 0C16.3023 0.0165776 17.6479 0.641417 18.612 1.729C19.576 2.81657 20.0744 4.27196 19.991 5.75619L19.991 12.8538C20.0744 14.3381 19.576 15.7934 18.612 16.881C17.6479 17.9686 16.3023 18.5934 14.8885 18.61L5.08342 18.61C2.0467 18.61 0 16.0272 0 12.8538L0 5.75619C0 2.58278 2.0467 0 5.08342 0L14.8885 0Z" id="Rectangle_511" fill="none" fill-rule="evenodd" stroke="#9C9C9C" stroke-width="1.5" stroke-linecap="round" stroke-linejoin="round" />
        </g>
      </g>
    </g>
  </g>
</svg>